{"title":"Purple People Eater (1988) ","uid":9690928,"size":2915089801,"categoryP":"video","categoryS":"movies","magnet":"?xt=urn:btih:aedec997679eeabe4e19f9e70ec5cf40a87ff018&amp;dn=+Purple+People+Eater+%281988%29+&amp;tr=udp%3A%2F%2Ftracker.openbittorrent.com%3A80&amp;tr=udp%3A%2F%2Fopen.demonii.com%3A1337&amp;tr=udp%3A%2F%2Ftracker.coppersurfer.tk%3A6969&amp;tr=udp%3A%2F%2Fexodus.desync.com%3A6969","seeders":0,"leechers":2,"uploader":"7","files":1,"time":1393862505,"description":" &lt;a href=&quot;http://www.imdb.com/title/tt0095930/&quot; rel=&quot;nofollow&quot; target=&quot;_NEW&quot;&gt;http://www.imdb.com/title/tt0095930/&lt;/a&gt;\n\nFormat : MPEG-4\n\nFormat profile : Base Media\nCodec ID : isom\nFile size: 2.71 GiB\nDuration : 1h 31mn\nOverall bit rate mode: Variable\nOverall bit rate : 4 238 Kbps\nEncoded date : UTC 2012-05-16 05:49:42\nTagged date: UTC 2012-05-16 05:49:42\n\nVideo\nID : 1\nFormat : AVC\nFormat/Info: Advanced Video Codec\nFormat profile : &lt;a class=&quot;__cf_email__&quot; href=&quot;/cdn-cgi/l/email-protection&quot; data-cfemail=&quot;6d25040a052d2159435c&quot;&gt;[email&amp;#160;protected]&lt;/a&gt;&lt;script cf-hash='f9e31' type=&quot;text/javascript&quot;&gt;\n/* &lt;![CDATA[ */!function(){try{var t=&quot;currentScript&quot;in document?document.currentScript:function(){for(var t=document.getElementsByTagName(&quot;script&quot;),e=t.length;e--;)if(t[e].getAttribute(&quot;cf-hash&quot;))return t[e]}();if(t&amp;&amp;t.previousSibling){var e,r,n,i,c=t.previousSibling,a=c.getAttribute(&quot;data-cfemail&quot;);if(a){for(e=&quot;&quot;,r=parseInt(a.substr(0,2),16),n=2;a.length-n;n+=2)i=parseInt(a.substr(n,2),16)^r,e+=String.fromCharCode(i);e=document.createTextNode(e),c.parentNode.replaceChild(e,c)}}}catch(u){}}();/* ]]&gt; */&lt;/script&gt;\nFormat settings, CABAC : Yes\nFormat settings, ReFrames: 3 frames\nCodec ID : avc1\nCodec ID/Info: Advanced Video Coding\nDuration : 1h 31mn\nBit rate mode: Variable\nBit rate : 4 015 Kbps\nMaximum bit rate : 40.0 Mbps\nWidth: 640 pixels\nHeight : 480 pixels\nDisplay aspect ratio : 4:3\nFrame rate mode: Constant\nFrame rate : 23.976 fps\nColor space: YUV\nChroma subsampling : 4:2:0\nBit depth: 8 bits\nScan type: Progressive\nBits/(Pixel*Frame) : 0.545\nStream size: 2.57 GiB (95%)\nWriting library: x264 core 120 r2164 da19765\nEncoded date : UTC 2012-05-16 05:49:42\nTagged date: UTC 2012-05-16 06:08:31\n\nAudio\nID : 2\nFormat : AAC\nFormat/Info: Advanced Audio Codec\nFormat profile : LC\nCodec ID : 40\nDuration : 1h 31mn\nBit rate mode: Variable\nBit rate : 220 Kbps\nMaximum bit rate : 289 Kbps\nChannel(s) : 2 channels\nChannel positions: Front: L R\nSampling rate: 44.1 KHz\nCompression mode : Lossy\nStream size: 144 MiB (5%)\nEncoded date : UTC 2012-05-16 06:08:29\nTagged date: UTC 2012-05-16 06:08:31","torrent":{"xt":"urn:btih:aedec997679eeabe4e19f9e70ec5cf40a87ff018","amp;dn":"+Purple+People+Eater+%281988%29+","amp;tr":["udp%3A%2F%2Ftracker.openbittorrent.com%3A80","udp%3A%2F%2Fopen.demonii.com%3A1337","udp%3A%2F%2Ftracker.coppersurfer.tk%3A6969","udp%3A%2F%2Fexodus.desync.com%3A6969"],"infoHash":"aedec997679eeabe4e19f9e70ec5cf40a87ff018","infoHashBuffer":{"type":"Buffer","data":[174,222,201,151,103,158,234,190,78,25,249,231,14,197,207,64,168,127,240,24]},"announce":[],"urlList":[]}}